<svg width="592" height="542" viewBox="0 0 592 542" fill="none" xmlns="http://www.w3.org/2000/svg">
<mask id="mask0_7748_9" style="mask-type:luminance" maskUnits="userSpaceOnUse" x="0" y="1" width="592" height="540">
<path d="M460.96 541L454.079 536.336L444.677 533.307L432.731 531.912L417.204 532.494L398.11 535.036L377.63 531.944L355.755 523.222L337.588 520.133L315.899 523.923L314.942 524.018L311.175 521.064L305.25 514.69L295.351 513.568L292.667 512.08L290.457 509.71L289.011 506.689L288.44 503.326L290.071 492.863L289.181 491.688L286.534 490.434L281.114 489.18L268.086 484.434L251.706 479.856L225.101 474.828L214.772 473.504L212.377 471.974L209.381 468.122L204.279 456.147L199.474 448.242L188.033 436.058L186.209 432.273L186.78 422.615L187.625 414.819L188.856 408.203L188.3 402.016L188.137 394.336L188.5 389.187L186.958 386.96L182.806 385.394L170.986 384.686L156.697 385.001L156.23 377.198L154.873 365.141L152.196 358.206L148.911 354.603L142.349 350.844L129.054 345.697L110.946 337.879L95.4854 326.314L77.7484 311.943L72.2094 309.456L65.6694 295.979L55.7034 272.943L56.3484 265.271L54.8434 261.522L45.1664 250.228L43.0234 244.366L41.3174 238.445L25.9084 221.933L20.6664 214.733L16.6774 205.488L12.7034 198.103L9.35136 195.125L4.96136 190.101L1.91337 184.374L0.526367 180.106L1.66837 174.383L3.16637 170.458L17.8184 174.546L25.8194 174.894L32.0854 172.881L39.8264 175.583L49.0654 183.018L59.1354 184.436L70.0434 179.827L84.7624 181.221L103.3 188.621L118.664 190.125L136.957 183.53L153.278 165.289L168.627 148.153L183.724 128.398L192.822 112.463L206.162 99.51L223.743 89.539L241.665 81.113L269.064 70.809L269.057 70.824L274.537 62.324L276.361 53.046V40.168L277.792 31.831L280.639 28.036L285.192 25.077L291.08 21.238L309.099 11.456L324.241 5.209L342.638 1.122L362.785 1.076L382.205 1.03L393.245 1L393.401 13.364L394.254 27.286L396.412 28.627L411.02 28.934L434.452 29.915L457.038 30.85L471.46 40.959L476.295 43.107L491.311 45.816L510.464 62.694L533.503 64.261L549.349 69.533L563.312 75.337L571.357 82.282L576.555 83.859L583.592 84.375L587.018 85.014L586.247 90.032L581.568 98.517L582.183 110.683L588.634 127.566L589.502 142.267L587.522 168.231L587.589 193.413L588.279 202.417L589.332 208.392L590.689 211.66L590.437 215.395L586.596 225.984L583.496 237.149L583.392 241.622L582.198 244.766L579.914 247.568L569.852 252.73L568.124 255.923L568.161 261.704L569.436 266.567L573.21 268.36L577.763 271.113L579.557 274.755L579.572 278.593L578.126 285.703L574.077 297.489L578.111 311.054L582.642 319.857L588.886 330.068L591.474 336.36L591.333 340.883L590.414 345.275L581.063 363.949L574.323 375.565L566.1 388.018L555.222 395.836L552.419 399.601L551.299 403.895L551.692 413.253L551.188 423.045L541.882 438.123L547.666 451.124L546.346 452.319L543.209 454.187L529.817 468.83L516.27 483.658L506.371 494.509L495.115 506.865L482.495 520.723L471.713 532.574L460.96 541Z" fill="white"/>
</mask>
<g mask="url(#mask0_7748_9)">
<path d="M-34 1H1046V541H-34V1Z" fill="#006400"/>
</g>
<mask id="mask1_7748_9" style="mask-type:luminance" maskUnits="userSpaceOnUse" x="0" y="1" width="592" height="540">
<path d="M460.96 541L454.079 536.336L444.677 533.307L432.731 531.912L417.204 532.494L398.11 535.036L377.63 531.944L355.755 523.222L337.588 520.133L315.899 523.923L314.942 524.018L311.175 521.064L305.25 514.69L295.351 513.568L292.667 512.08L290.457 509.71L289.011 506.689L288.44 503.326L290.071 492.863L289.181 491.688L286.534 490.434L281.114 489.18L268.086 484.434L251.706 479.856L225.101 474.828L214.772 473.504L212.377 471.974L209.381 468.122L204.279 456.147L199.474 448.242L188.033 436.058L186.209 432.273L186.78 422.615L187.625 414.819L188.856 408.203L188.3 402.016L188.137 394.336L188.5 389.187L186.958 386.96L182.806 385.394L170.986 384.686L156.697 385.001L156.23 377.198L154.873 365.141L152.196 358.206L148.911 354.603L142.349 350.844L129.054 345.697L110.946 337.879L95.4854 326.314L77.7484 311.943L72.2094 309.456L65.6694 295.979L55.7034 272.943L56.3484 265.271L54.8434 261.522L45.1664 250.228L43.0234 244.366L41.3174 238.445L25.9084 221.933L20.6664 214.733L16.6774 205.488L12.7034 198.103L9.35136 195.125L4.96136 190.101L1.91337 184.374L0.526367 180.106L1.66837 174.383L3.16637 170.458L17.8184 174.546L25.8194 174.894L32.0854 172.881L39.8264 175.583L49.0654 183.018L59.1354 184.436L70.0434 179.827L84.7624 181.221L103.3 188.621L118.664 190.125L136.957 183.53L153.278 165.289L168.627 148.153L183.724 128.398L192.822 112.463L206.162 99.51L223.743 89.539L241.665 81.113L269.064 70.809L269.057 70.824L274.537 62.324L276.361 53.046V40.168L277.792 31.831L280.639 28.036L285.192 25.077L291.08 21.238L309.099 11.456L324.241 5.209L342.638 1.122L362.785 1.076L382.205 1.03L393.245 1L393.401 13.364L394.254 27.286L396.412 28.627L411.02 28.934L434.452 29.915L457.038 30.85L471.46 40.959L476.295 43.107L491.311 45.816L510.464 62.694L533.503 64.261L549.349 69.533L563.312 75.337L571.357 82.282L576.555 83.859L583.592 84.375L587.018 85.014L586.247 90.032L581.568 98.517L582.183 110.683L588.634 127.566L589.502 142.267L587.522 168.231L587.589 193.413L588.279 202.417L589.332 208.392L590.689 211.66L590.437 215.395L586.596 225.984L583.496 237.149L583.392 241.622L582.198 244.766L579.914 247.568L569.852 252.73L568.124 255.923L568.161 261.704L569.436 266.567L573.21 268.36L577.763 271.113L579.557 274.755L579.572 278.593L578.126 285.703L574.077 297.489L578.111 311.054L582.642 319.857L588.886 330.068L591.474 336.36L591.333 340.883L590.414 345.275L581.063 363.949L574.323 375.565L566.1 388.018L555.222 395.836L552.419 399.601L551.299 403.895L551.692 413.253L551.188 423.045L541.882 438.123L547.666 451.124L546.346 452.319L543.209 454.187L529.817 468.83L516.27 483.658L506.371 494.509L495.115 506.865L482.495 520.723L471.713 532.574L460.96 541Z" fill="white"/>
</mask>
<g mask="url(#mask1_7748_9)">
<path d="M-34 78.1426H1046V463.857H-34V78.1426Z" fill="#FFD200"/>
</g>
<mask id="mask2_7748_9" style="mask-type:luminance" maskUnits="userSpaceOnUse" x="0" y="1" width="592" height="540">
<path d="M460.96 541L454.079 536.336L444.677 533.307L432.731 531.912L417.204 532.494L398.11 535.036L377.63 531.944L355.755 523.222L337.588 520.133L315.899 523.923L314.942 524.018L311.175 521.064L305.25 514.69L295.351 513.568L292.667 512.08L290.457 509.71L289.011 506.689L288.44 503.326L290.071 492.863L289.181 491.688L286.534 490.434L281.114 489.18L268.086 484.434L251.706 479.856L225.101 474.828L214.772 473.504L212.377 471.974L209.381 468.122L204.279 456.147L199.474 448.242L188.033 436.058L186.209 432.273L186.78 422.615L187.625 414.819L188.856 408.203L188.3 402.016L188.137 394.336L188.5 389.187L186.958 386.96L182.806 385.394L170.986 384.686L156.697 385.001L156.23 377.198L154.873 365.141L152.196 358.206L148.911 354.603L142.349 350.844L129.054 345.697L110.946 337.879L95.4854 326.314L77.7484 311.943L72.2094 309.456L65.6694 295.979L55.7034 272.943L56.3484 265.271L54.8434 261.522L45.1664 250.228L43.0234 244.366L41.3174 238.445L25.9084 221.933L20.6664 214.733L16.6774 205.488L12.7034 198.103L9.35136 195.125L4.96136 190.101L1.91337 184.374L0.526367 180.106L1.66837 174.383L3.16637 170.458L17.8184 174.546L25.8194 174.894L32.0854 172.881L39.8264 175.583L49.0654 183.018L59.1354 184.436L70.0434 179.827L84.7624 181.221L103.3 188.621L118.664 190.125L136.957 183.53L153.278 165.289L168.627 148.153L183.724 128.398L192.822 112.463L206.162 99.51L223.743 89.539L241.665 81.113L269.064 70.809L269.057 70.824L274.537 62.324L276.361 53.046V40.168L277.792 31.831L280.639 28.036L285.192 25.077L291.08 21.238L309.099 11.456L324.241 5.209L342.638 1.122L362.785 1.076L382.205 1.03L393.245 1L393.401 13.364L394.254 27.286L396.412 28.627L411.02 28.934L434.452 29.915L457.038 30.85L471.46 40.959L476.295 43.107L491.311 45.816L510.464 62.694L533.503 64.261L549.349 69.533L563.312 75.337L571.357 82.282L576.555 83.859L583.592 84.375L587.018 85.014L586.247 90.032L581.568 98.517L582.183 110.683L588.634 127.566L589.502 142.267L587.522 168.231L587.589 193.413L588.279 202.417L589.332 208.392L590.689 211.66L590.437 215.395L586.596 225.984L583.496 237.149L583.392 241.622L582.198 244.766L579.914 247.568L569.852 252.73L568.124 255.923L568.161 261.704L569.436 266.567L573.21 268.36L577.763 271.113L579.557 274.755L579.572 278.593L578.126 285.703L574.077 297.489L578.111 311.054L582.642 319.857L588.886 330.068L591.474 336.36L591.333 340.883L590.414 345.275L581.063 363.949L574.323 375.565L566.1 388.018L555.222 395.836L552.419 399.601L551.299 403.895L551.692 413.253L551.188 423.045L541.882 438.123L547.666 451.124L546.346 452.319L543.209 454.187L529.817 468.83L516.27 483.658L506.371 494.509L495.115 506.865L482.495 520.723L471.713 532.574L460.96 541Z" fill="white"/>
</mask>
<g mask="url(#mask2_7748_9)">
<path d="M-34 155.285H1046V386.714H-34V155.285Z" fill="#D40000"/>
</g>
<mask id="mask3_7748_9" style="mask-type:luminance" maskUnits="userSpaceOnUse" x="0" y="1" width="592" height="540">
<path d="M460.96 541L454.079 536.336L444.677 533.307L432.731 531.912L417.204 532.494L398.11 535.036L377.63 531.944L355.755 523.222L337.588 520.133L315.899 523.923L314.942 524.018L311.175 521.064L305.25 514.69L295.351 513.568L292.667 512.08L290.457 509.71L289.011 506.689L288.44 503.326L290.071 492.863L289.181 491.688L286.534 490.434L281.114 489.18L268.086 484.434L251.706 479.856L225.101 474.828L214.772 473.504L212.377 471.974L209.381 468.122L204.279 456.147L199.474 448.242L188.033 436.058L186.209 432.273L186.78 422.615L187.625 414.819L188.856 408.203L188.3 402.016L188.137 394.336L188.5 389.187L186.958 386.96L182.806 385.394L170.986 384.686L156.697 385.001L156.23 377.198L154.873 365.141L152.196 358.206L148.911 354.603L142.349 350.844L129.054 345.697L110.946 337.879L95.4854 326.314L77.7484 311.943L72.2094 309.456L65.6694 295.979L55.7034 272.943L56.3484 265.271L54.8434 261.522L45.1664 250.228L43.0234 244.366L41.3174 238.445L25.9084 221.933L20.6664 214.733L16.6774 205.488L12.7034 198.103L9.35136 195.125L4.96136 190.101L1.91337 184.374L0.526367 180.106L1.66837 174.383L3.16637 170.458L17.8184 174.546L25.8194 174.894L32.0854 172.881L39.8264 175.583L49.0654 183.018L59.1354 184.436L70.0434 179.827L84.7624 181.221L103.3 188.621L118.664 190.125L136.957 183.53L153.278 165.289L168.627 148.153L183.724 128.398L192.822 112.463L206.162 99.51L223.743 89.539L241.665 81.113L269.064 70.809L269.057 70.824L274.537 62.324L276.361 53.046V40.168L277.792 31.831L280.639 28.036L285.192 25.077L291.08 21.238L309.099 11.456L324.241 5.209L342.638 1.122L362.785 1.076L382.205 1.03L393.245 1L393.401 13.364L394.254 27.286L396.412 28.627L411.02 28.934L434.452 29.915L457.038 30.85L471.46 40.959L476.295 43.107L491.311 45.816L510.464 62.694L533.503 64.261L549.349 69.533L563.312 75.337L571.357 82.282L576.555 83.859L583.592 84.375L587.018 85.014L586.247 90.032L581.568 98.517L582.183 110.683L588.634 127.566L589.502 142.267L587.522 168.231L587.589 193.413L588.279 202.417L589.332 208.392L590.689 211.66L590.437 215.395L586.596 225.984L583.496 237.149L583.392 241.622L582.198 244.766L579.914 247.568L569.852 252.73L568.124 255.923L568.161 261.704L569.436 266.567L573.21 268.36L577.763 271.113L579.557 274.755L579.572 278.593L578.126 285.703L574.077 297.489L578.111 311.054L582.642 319.857L588.886 330.068L591.474 336.36L591.333 340.883L590.414 345.275L581.063 363.949L574.323 375.565L566.1 388.018L555.222 395.836L552.419 399.601L551.299 403.895L551.692 413.253L551.188 423.045L541.882 438.123L547.666 451.124L546.346 452.319L543.209 454.187L529.817 468.83L516.27 483.658L506.371 494.509L495.115 506.865L482.495 520.723L471.713 532.574L460.96 541Z" fill="white"/>
</mask>
<g mask="url(#mask3_7748_9)">
<path d="M-34 232.43H1046V309.573H-34V232.43Z" fill="black"/>
</g>
<mask id="mask4_7748_9" style="mask-type:luminance" maskUnits="userSpaceOnUse" x="0" y="1" width="592" height="540">
<path d="M460.96 541L454.079 536.336L444.677 533.307L432.731 531.912L417.204 532.494L398.11 535.036L377.63 531.944L355.755 523.222L337.588 520.133L315.899 523.923L314.942 524.018L311.175 521.064L305.25 514.69L295.351 513.568L292.667 512.08L290.457 509.71L289.011 506.689L288.44 503.326L290.071 492.863L289.181 491.688L286.534 490.434L281.114 489.18L268.086 484.434L251.706 479.856L225.101 474.828L214.772 473.504L212.377 471.974L209.381 468.122L204.279 456.147L199.474 448.242L188.033 436.058L186.209 432.273L186.78 422.615L187.625 414.819L188.856 408.203L188.3 402.016L188.137 394.336L188.5 389.187L186.958 386.96L182.806 385.394L170.986 384.686L156.697 385.001L156.23 377.198L154.873 365.141L152.196 358.206L148.911 354.603L142.349 350.844L129.054 345.697L110.946 337.879L95.4854 326.314L77.7484 311.943L72.2094 309.456L65.6694 295.979L55.7034 272.943L56.3484 265.271L54.8434 261.522L45.1664 250.228L43.0234 244.366L41.3174 238.445L25.9084 221.933L20.6664 214.733L16.6774 205.488L12.7034 198.103L9.35136 195.125L4.96136 190.101L1.91337 184.374L0.526367 180.106L1.66837 174.383L3.16637 170.458L17.8184 174.546L25.8194 174.894L32.0854 172.881L39.8264 175.583L49.0654 183.018L59.1354 184.436L70.0434 179.827L84.7624 181.221L103.3 188.621L118.664 190.125L136.957 183.53L153.278 165.289L168.627 148.153L183.724 128.398L192.822 112.463L206.162 99.51L223.743 89.539L241.665 81.113L269.064 70.809L269.057 70.824L274.537 62.324L276.361 53.046V40.168L277.792 31.831L280.639 28.036L285.192 25.077L291.08 21.238L309.099 11.456L324.241 5.209L342.638 1.122L362.785 1.076L382.205 1.03L393.245 1L393.401 13.364L394.254 27.286L396.412 28.627L411.02 28.934L434.452 29.915L457.038 30.85L471.46 40.959L476.295 43.107L491.311 45.816L510.464 62.694L533.503 64.261L549.349 69.533L563.312 75.337L571.357 82.282L576.555 83.859L583.592 84.375L587.018 85.014L586.247 90.032L581.568 98.517L582.183 110.683L588.634 127.566L589.502 142.267L587.522 168.231L587.589 193.413L588.279 202.417L589.332 208.392L590.689 211.66L590.437 215.395L586.596 225.984L583.496 237.149L583.392 241.622L582.198 244.766L579.914 247.568L569.852 252.73L568.124 255.923L568.161 261.704L569.436 266.567L573.21 268.36L577.763 271.113L579.557 274.755L579.572 278.593L578.126 285.703L574.077 297.489L578.111 311.054L582.642 319.857L588.886 330.068L591.474 336.36L591.333 340.883L590.414 345.275L581.063 363.949L574.323 375.565L566.1 388.018L555.222 395.836L552.419 399.601L551.299 403.895L551.692 413.253L551.188 423.045L541.882 438.123L547.666 451.124L546.346 452.319L543.209 454.187L529.817 468.83L516.27 483.658L506.371 494.509L495.115 506.865L482.495 520.723L471.713 532.574L460.96 541Z" fill="white"/>
</mask>
<g mask="url(#mask4_7748_9)">
<path d="M-34 1V541L326 271.001L-34 1Z" fill="black" stroke="black" stroke-width="23.812"/>
</g>
<mask id="mask5_7748_9" style="mask-type:luminance" maskUnits="userSpaceOnUse" x="0" y="1" width="592" height="540">
<path d="M460.96 541L454.079 536.336L444.677 533.307L432.731 531.912L417.204 532.494L398.11 535.036L377.63 531.944L355.755 523.222L337.588 520.133L315.899 523.923L314.942 524.018L311.175 521.064L305.25 514.69L295.351 513.568L292.667 512.08L290.457 509.71L289.011 506.689L288.44 503.326L290.071 492.863L289.181 491.688L286.534 490.434L281.114 489.18L268.086 484.434L251.706 479.856L225.101 474.828L214.772 473.504L212.377 471.974L209.381 468.122L204.279 456.147L199.474 448.242L188.033 436.058L186.209 432.273L186.78 422.615L187.625 414.819L188.856 408.203L188.3 402.016L188.137 394.336L188.5 389.187L186.958 386.96L182.806 385.394L170.986 384.686L156.697 385.001L156.23 377.198L154.873 365.141L152.196 358.206L148.911 354.603L142.349 350.844L129.054 345.697L110.946 337.879L95.4854 326.314L77.7484 311.943L72.2094 309.456L65.6694 295.979L55.7034 272.943L56.3484 265.271L54.8434 261.522L45.1664 250.228L43.0234 244.366L41.3174 238.445L25.9084 221.933L20.6664 214.733L16.6774 205.488L12.7034 198.103L9.35136 195.125L4.96136 190.101L1.91337 184.374L0.526367 180.106L1.66837 174.383L3.16637 170.458L17.8184 174.546L25.8194 174.894L32.0854 172.881L39.8264 175.583L49.0654 183.018L59.1354 184.436L70.0434 179.827L84.7624 181.221L103.3 188.621L118.664 190.125L136.957 183.53L153.278 165.289L168.627 148.153L183.724 128.398L192.822 112.463L206.162 99.51L223.743 89.539L241.665 81.113L269.064 70.809L269.057 70.824L274.537 62.324L276.361 53.046V40.168L277.792 31.831L280.639 28.036L285.192 25.077L291.08 21.238L309.099 11.456L324.241 5.209L342.638 1.122L362.785 1.076L382.205 1.03L393.245 1L393.401 13.364L394.254 27.286L396.412 28.627L411.02 28.934L434.452 29.915L457.038 30.85L471.46 40.959L476.295 43.107L491.311 45.816L510.464 62.694L533.503 64.261L549.349 69.533L563.312 75.337L571.357 82.282L576.555 83.859L583.592 84.375L587.018 85.014L586.247 90.032L581.568 98.517L582.183 110.683L588.634 127.566L589.502 142.267L587.522 168.231L587.589 193.413L588.279 202.417L589.332 208.392L590.689 211.66L590.437 215.395L586.596 225.984L583.496 237.149L583.392 241.622L582.198 244.766L579.914 247.568L569.852 252.73L568.124 255.923L568.161 261.704L569.436 266.567L573.21 268.36L577.763 271.113L579.557 274.755L579.572 278.593L578.126 285.703L574.077 297.489L578.111 311.054L582.642 319.857L588.886 330.068L591.474 336.36L591.333 340.883L590.414 345.275L581.063 363.949L574.323 375.565L566.1 388.018L555.222 395.836L552.419 399.601L551.299 403.895L551.692 413.253L551.188 423.045L541.882 438.123L547.666 451.124L546.346 452.319L543.209 454.187L529.817 468.83L516.27 483.658L506.371 494.509L495.115 506.865L482.495 520.723L471.713 532.574L460.96 541Z" fill="white"/>
</mask>
<g mask="url(#mask5_7748_9)">
<path d="M-34 1V541L326 271.001L-34 1Z" fill="white"/>
</g>
<mask id="mask6_7748_9" style="mask-type:luminance" maskUnits="userSpaceOnUse" x="0" y="1" width="592" height="540">
<path d="M460.96 541L454.079 536.336L444.677 533.307L432.731 531.912L417.204 532.494L398.11 535.036L377.63 531.944L355.755 523.222L337.588 520.133L315.899 523.923L314.942 524.018L311.175 521.064L305.25 514.69L295.351 513.568L292.667 512.08L290.457 509.71L289.011 506.689L288.44 503.326L290.071 492.863L289.181 491.688L286.534 490.434L281.114 489.18L268.086 484.434L251.706 479.856L225.101 474.828L214.772 473.504L212.377 471.974L209.381 468.122L204.279 456.147L199.474 448.242L188.033 436.058L186.209 432.273L186.78 422.615L187.625 414.819L188.856 408.203L188.3 402.016L188.137 394.336L188.5 389.187L186.958 386.96L182.806 385.394L170.986 384.686L156.697 385.001L156.23 377.198L154.873 365.141L152.196 358.206L148.911 354.603L142.349 350.844L129.054 345.697L110.946 337.879L95.4854 326.314L77.7484 311.943L72.2094 309.456L65.6694 295.979L55.7034 272.943L56.3484 265.271L54.8434 261.522L45.1664 250.228L43.0234 244.366L41.3174 238.445L25.9084 221.933L20.6664 214.733L16.6774 205.488L12.7034 198.103L9.35136 195.125L4.96136 190.101L1.91337 184.374L0.526367 180.106L1.66837 174.383L3.16637 170.458L17.8184 174.546L25.8194 174.894L32.0854 172.881L39.8264 175.583L49.0654 183.018L59.1354 184.436L70.0434 179.827L84.7624 181.221L103.3 188.621L118.664 190.125L136.957 183.53L153.278 165.289L168.627 148.153L183.724 128.398L192.822 112.463L206.162 99.51L223.743 89.539L241.665 81.113L269.064 70.809L269.057 70.824L274.537 62.324L276.361 53.046V40.168L277.792 31.831L280.639 28.036L285.192 25.077L291.08 21.238L309.099 11.456L324.241 5.209L342.638 1.122L362.785 1.076L382.205 1.03L393.245 1L393.401 13.364L394.254 27.286L396.412 28.627L411.02 28.934L434.452 29.915L457.038 30.85L471.46 40.959L476.295 43.107L491.311 45.816L510.464 62.694L533.503 64.261L549.349 69.533L563.312 75.337L571.357 82.282L576.555 83.859L583.592 84.375L587.018 85.014L586.247 90.032L581.568 98.517L582.183 110.683L588.634 127.566L589.502 142.267L587.522 168.231L587.589 193.413L588.279 202.417L589.332 208.392L590.689 211.66L590.437 215.395L586.596 225.984L583.496 237.149L583.392 241.622L582.198 244.766L579.914 247.568L569.852 252.73L568.124 255.923L568.161 261.704L569.436 266.567L573.21 268.36L577.763 271.113L579.557 274.755L579.572 278.593L578.126 285.703L574.077 297.489L578.111 311.054L582.642 319.857L588.886 330.068L591.474 336.36L591.333 340.883L590.414 345.275L581.063 363.949L574.323 375.565L566.1 388.018L555.222 395.836L552.419 399.601L551.299 403.895L551.692 413.253L551.188 423.045L541.882 438.123L547.666 451.124L546.346 452.319L543.209 454.187L529.817 468.83L516.27 483.658L506.371 494.509L495.115 506.865L482.495 520.723L471.713 532.574L460.96 541Z" fill="white"/>
</mask>
<g mask="url(#mask6_7748_9)">
<path d="M102.955 135.248L174.258 354.7L-12.418 219.071H218.327L31.65 354.699L102.955 135.248Z" fill="#D40000"/>
</g>
<mask id="mask7_7748_9" style="mask-type:luminance" maskUnits="userSpaceOnUse" x="0" y="1" width="592" height="540">
<path d="M460.96 541L454.079 536.336L444.677 533.307L432.731 531.912L417.204 532.494L398.11 535.036L377.63 531.944L355.755 523.222L337.588 520.133L315.899 523.923L314.942 524.018L311.175 521.064L305.25 514.69L295.351 513.568L292.667 512.08L290.457 509.71L289.011 506.689L288.44 503.326L290.071 492.863L289.181 491.688L286.534 490.434L281.114 489.18L268.086 484.434L251.706 479.856L225.101 474.828L214.772 473.504L212.377 471.974L209.381 468.122L204.279 456.147L199.474 448.242L188.033 436.058L186.209 432.273L186.78 422.615L187.625 414.819L188.856 408.203L188.3 402.016L188.137 394.336L188.5 389.187L186.958 386.96L182.806 385.394L170.986 384.686L156.697 385.001L156.23 377.198L154.873 365.141L152.196 358.206L148.911 354.603L142.349 350.844L129.054 345.697L110.946 337.879L95.4854 326.314L77.7484 311.943L72.2094 309.456L65.6694 295.979L55.7034 272.943L56.3484 265.271L54.8434 261.522L45.1664 250.228L43.0234 244.366L41.3174 238.445L25.9084 221.933L20.6664 214.733L16.6774 205.488L12.7034 198.103L9.35136 195.125L4.96136 190.101L1.91337 184.374L0.526367 180.106L1.66837 174.383L3.16637 170.458L17.8184 174.546L25.8194 174.894L32.0854 172.881L39.8264 175.583L49.0654 183.018L59.1354 184.436L70.0434 179.827L84.7624 181.221L103.3 188.621L118.664 190.125L136.957 183.53L153.278 165.289L168.627 148.153L183.724 128.398L192.822 112.463L206.162 99.51L223.743 89.539L241.665 81.113L269.064 70.809L269.057 70.824L274.537 62.324L276.361 53.046V40.168L277.792 31.831L280.639 28.036L285.192 25.077L291.08 21.238L309.099 11.456L324.241 5.209L342.638 1.122L362.785 1.076L382.205 1.03L393.245 1L393.401 13.364L394.254 27.286L396.412 28.627L411.02 28.934L434.452 29.915L457.038 30.85L471.46 40.959L476.295 43.107L491.311 45.816L510.464 62.694L533.503 64.261L549.349 69.533L563.312 75.337L571.357 82.282L576.555 83.859L583.592 84.375L587.018 85.014L586.247 90.032L581.568 98.517L582.183 110.683L588.634 127.566L589.502 142.267L587.522 168.231L587.589 193.413L588.279 202.417L589.332 208.392L590.689 211.66L590.437 215.395L586.596 225.984L583.496 237.149L583.392 241.622L582.198 244.766L579.914 247.568L569.852 252.73L568.124 255.923L568.161 261.704L569.436 266.567L573.21 268.36L577.763 271.113L579.557 274.755L579.572 278.593L578.126 285.703L574.077 297.489L578.111 311.054L582.642 319.857L588.886 330.068L591.474 336.36L591.333 340.883L590.414 345.275L581.063 363.949L574.323 375.565L566.1 388.018L555.222 395.836L552.419 399.601L551.299 403.895L551.692 413.253L551.188 423.045L541.882 438.123L547.666 451.124L546.346 452.319L543.209 454.187L529.817 468.83L516.27 483.658L506.371 494.509L495.115 506.865L482.495 520.723L471.713 532.574L460.96 541Z" fill="white"/>
</mask>
<g mask="url(#mask7_7748_9)">
<path d="M72.418 327.134L85.019 324.844L108.388 323.927L116.979 324.729L136.223 327.936L137.713 325.989V312.129L139.889 300.216L143.899 288.074L148.023 278.452L153.406 268.485L162.227 270.662H164.517L164.747 268.944L146.303 253.135L126.945 238.359L99.108 217.51L96.588 216.822L93.4949 195.058L91.319 188.414L88.455 185.894L82.8419 184.061L76.656 184.29L73.907 185.894L67.951 187.269L64.8569 187.727L62.795 190.133L62.5659 193.226L71.158 193.455L73.334 194.372L73.1049 195.288L68.1799 195.976L65.888 196.663L68.6369 198.726L71.386 199.756L75.0509 201.131L75.739 203.537L76.082 236.871L74.1349 242.025L73.447 251.647L76.311 263.217L69.0939 271.351L65.085 278.681L64.397 283.263L62.2209 287.731L61.877 290.595L63.367 293.573L68.865 311.901L71.729 326.907L72.418 327.134Z" fill="#FFCC00"/>
</g>
<mask id="mask8_7748_9" style="mask-type:luminance" maskUnits="userSpaceOnUse" x="0" y="1" width="592" height="540">
<path d="M460.96 541L454.079 536.336L444.677 533.307L432.731 531.912L417.204 532.494L398.11 535.036L377.63 531.944L355.755 523.222L337.588 520.133L315.899 523.923L314.942 524.018L311.175 521.064L305.25 514.69L295.351 513.568L292.667 512.08L290.457 509.71L289.011 506.689L288.44 503.326L290.071 492.863L289.181 491.688L286.534 490.434L281.114 489.18L268.086 484.434L251.706 479.856L225.101 474.828L214.772 473.504L212.377 471.974L209.381 468.122L204.279 456.147L199.474 448.242L188.033 436.058L186.209 432.273L186.78 422.615L187.625 414.819L188.856 408.203L188.3 402.016L188.137 394.336L188.5 389.187L186.958 386.96L182.806 385.394L170.986 384.686L156.697 385.001L156.23 377.198L154.873 365.141L152.196 358.206L148.911 354.603L142.349 350.844L129.054 345.697L110.946 337.879L95.4854 326.314L77.7484 311.943L72.2094 309.456L65.6694 295.979L55.7034 272.943L56.3484 265.271L54.8434 261.522L45.1664 250.228L43.0234 244.366L41.3174 238.445L25.9084 221.933L20.6664 214.733L16.6774 205.488L12.7034 198.103L9.35136 195.125L4.96136 190.101L1.91337 184.374L0.526367 180.106L1.66837 174.383L3.16637 170.458L17.8184 174.546L25.8194 174.894L32.0854 172.881L39.8264 175.583L49.0654 183.018L59.1354 184.436L70.0434 179.827L84.7624 181.221L103.3 188.621L118.664 190.125L136.957 183.53L153.278 165.289L168.627 148.153L183.724 128.398L192.822 112.463L206.162 99.51L223.743 89.539L241.665 81.113L269.064 70.809L269.057 70.824L274.537 62.324L276.361 53.046V40.168L277.792 31.831L280.639 28.036L285.192 25.077L291.08 21.238L309.099 11.456L324.241 5.209L342.638 1.122L362.785 1.076L382.205 1.03L393.245 1L393.401 13.364L394.254 27.286L396.412 28.627L411.02 28.934L434.452 29.915L457.038 30.85L471.46 40.959L476.295 43.107L491.311 45.816L510.464 62.694L533.503 64.261L549.349 69.533L563.312 75.337L571.357 82.282L576.555 83.859L583.592 84.375L587.018 85.014L586.247 90.032L581.568 98.517L582.183 110.683L588.634 127.566L589.502 142.267L587.522 168.231L587.589 193.413L588.279 202.417L589.332 208.392L590.689 211.66L590.437 215.395L586.596 225.984L583.496 237.149L583.392 241.622L582.198 244.766L579.914 247.568L569.852 252.73L568.124 255.923L568.161 261.704L569.436 266.567L573.21 268.36L577.763 271.113L579.557 274.755L579.572 278.593L578.126 285.703L574.077 297.489L578.111 311.054L582.642 319.857L588.886 330.068L591.474 336.36L591.333 340.883L590.414 345.275L581.063 363.949L574.323 375.565L566.1 388.018L555.222 395.836L552.419 399.601L551.299 403.895L551.692 413.253L551.188 423.045L541.882 438.123L547.666 451.124L546.346 452.319L543.209 454.187L529.817 468.83L516.27 483.658L506.371 494.509L495.115 506.865L482.495 520.723L471.713 532.574L460.96 541Z" fill="white"/>
</mask>
<g mask="url(#mask8_7748_9)">
<path d="M79.0872 183.467C76.8822 183.466 75.8242 183.846 73.6392 185.033C71.6662 186.105 69.3272 186.818 67.7322 186.818C64.4912 186.818 61.8752 189.144 61.8752 192.049V193.978L66.6002 193.833C80.1442 194.287 67.7792 195.535 66.7932 195.713C63.4302 196.323 67.5382 199.066 71.4942 200.389C75.7492 201.814 75.5672 200.991 75.5672 219.651C75.5672 234.974 75.4342 237.141 74.2662 240.673C72.5492 245.857 72.5492 253.562 74.2662 258.632C74.9592 260.682 75.5322 262.592 75.5442 262.876C75.5552 263.159 73.5402 265.664 71.0602 268.444C66.5822 273.464 63.8282 278.852 63.8282 282.619C63.8282 283.487 63.2432 284.952 62.5262 285.898C60.8732 288.084 60.8252 291.847 62.4302 293.275C64.0952 294.758 70.9702 321.295 70.9882 326.303C70.9942 328.128 71.3212 328.117 81.7642 326.014C90.1952 324.315 110.125 323.955 120.215 325.314C124.875 325.942 130.297 326.858 132.268 327.364C138.477 328.958 138.136 329.286 138.15 321.795C138.173 310.213 140.284 299.197 144.756 287.419C146.791 282.061 152.137 271.179 153.555 269.507C153.695 269.342 155.973 269.763 158.618 270.448C164.028 271.849 165.513 271.587 165.513 269.243C165.513 267.901 159.989 263.296 132.943 242.122C114.72 227.855 99.7732 216.617 99.0242 216.617C98.2902 216.617 97.5462 216.239 97.3852 215.773C97.2242 215.308 96.3662 209.793 95.4562 203.503C94.5492 197.214 93.3212 191.002 92.7332 189.713C91.0122 185.944 87.4482 183.946 81.7642 183.566C80.8732 183.504 79.9812 183.471 79.0882 183.469L79.0872 183.467ZM79.2792 184.817C80.1072 184.815 80.9362 184.839 81.7632 184.889C90.3012 185.337 91.9162 187.693 94.1542 202.873C95.0222 208.765 95.7372 214.212 95.7452 214.999C95.7562 216.021 94.5682 217.229 91.5742 219.242C87.1662 222.205 81.4772 227.611 78.7022 231.441L77.0392 233.707L76.7252 228.38C76.5412 225.451 76.5412 218.617 76.7252 213.192C77.1032 201.982 76.8092 200.875 73.1332 199.644C70.1312 198.64 66.2142 197.56 67.3712 196.872C68.6342 196.121 69.8032 196.657 73.0122 195.859C74.1492 195.576 74.0882 195.625 73.9042 194.654C73.5752 192.905 71.8672 192.103 67.0342 192.365C63.2382 192.569 62.7512 192.471 63.0082 191.447C63.5272 189.381 65.6752 188.024 68.8652 187.711C70.5822 187.544 73.0872 186.782 74.4592 186.024C75.9752 185.183 77.1522 184.843 79.2792 184.817ZM98.3972 218.084C98.5762 218.081 98.7442 218.084 98.9032 218.109C101.091 218.452 164.209 267.801 164.209 269.168C164.209 269.709 163.704 270.142 163.075 270.132C162.449 270.122 146.384 265.573 127.397 260.031C97.0542 251.176 92.6912 249.729 91.3812 248.147C89.5192 245.898 89.4572 242.462 91.2112 240.143C91.9282 239.196 92.5132 238.032 92.5132 237.54C92.5132 236.04 89.2952 239.864 88.6792 242.096C87.9602 244.705 89.3012 249.071 91.2592 250.485C92.0332 251.044 97.8162 253.031 104.109 254.896C114.846 258.08 115.568 258.422 116.138 260.2C117.506 264.468 112.997 269.422 106.471 270.831C104.366 271.285 101.69 272.524 99.8422 273.917C92.4932 279.453 87.3772 282.725 83.0872 284.572C80.5652 285.658 78.1292 286.886 77.6872 287.32C77.2452 287.753 76.6022 289.728 76.2402 291.708C75.4732 295.909 75.1492 296.554 73.9022 296.554C73.1812 296.554 73.1162 296.176 73.6132 294.818C74.5302 292.313 74.4292 289.105 73.4212 289.105C72.8862 289.105 72.5532 289.997 72.5532 291.492C72.5532 292.795 72.1862 294.232 71.7102 294.698C70.9952 295.398 70.9042 294.881 71.2022 291.66C71.4022 289.517 71.3152 287.754 71.0102 287.754C70.4262 287.754 69.2772 291.001 68.8642 293.853C68.6232 295.526 68.6092 295.512 68.0692 293.54C67.6482 292 67.8522 290.967 68.9362 289.008C69.7102 287.611 70.3592 285.578 70.3592 284.476C70.3592 282.815 71.5832 281.209 77.5912 275.123C81.5792 271.083 86.2232 266.069 87.9082 263.985C90.8242 260.379 90.9782 259.997 90.8732 256.344C90.8132 254.233 90.5682 252.335 90.3432 252.101C89.5812 251.309 88.5652 255.39 88.9682 257.621C89.3322 259.638 88.9572 260.325 84.7502 265.287C82.2102 268.283 77.8972 272.798 75.1792 275.34C70.1732 280.021 68.3812 282.552 68.3812 284.935C68.3812 285.659 67.8192 287.57 67.1282 289.178C66.4352 290.785 66.0512 292.429 66.2602 292.817C66.4922 293.253 66.3262 293.224 65.8502 292.769C65.2852 292.229 65.2402 291.231 65.7052 289.08C66.0562 287.458 66.2012 285.89 66.0182 285.584C65.3192 284.409 64.5002 285.919 64.0892 289.128C63.8552 290.968 63.4142 292.318 63.1012 292.117C62.1582 291.512 62.4562 288.16 63.6072 286.452C64.2012 285.572 64.9412 283.474 65.2462 281.776C66.1022 277.013 68.1492 273.232 72.6952 268.083C74.9872 265.487 76.8662 263.267 76.8662 263.14C76.8662 263.014 76.2552 261.099 75.5162 258.897C73.8072 253.808 73.6932 246.059 75.2502 241.348C76.8912 236.383 80.2732 231.467 85.6172 226.281C90.7882 221.259 95.7022 218.128 98.3922 218.085L98.3972 218.084ZM117.706 259.453C118.309 259.389 118.875 259.663 118.97 260.065C118.979 260.102 118.983 260.139 118.984 260.176C118.91 260.58 118.36 260.867 117.754 260.818C117.25 260.777 116.852 260.512 116.791 260.176C116.792 259.819 117.178 259.514 117.706 259.453ZM120.889 259.864C120.897 259.864 120.905 259.864 120.913 259.864C121.513 259.791 122.089 260.056 122.198 260.456C122.212 260.507 122.218 260.558 122.215 260.61C122.215 261.019 121.718 261.35 121.106 261.35C120.493 261.35 119.997 261.019 119.997 260.61C119.979 260.249 120.357 259.932 120.889 259.863V259.864ZM124.263 260.49C124.303 260.489 124.344 260.489 124.384 260.49C124.993 260.462 125.52 260.768 125.562 261.174C125.564 261.195 125.565 261.216 125.564 261.237C125.49 261.641 124.94 261.928 124.334 261.879C123.83 261.838 123.432 261.573 123.371 261.237C123.352 260.875 123.73 260.559 124.263 260.49ZM127.301 261.116C127.349 261.114 127.398 261.114 127.446 261.116C128.055 261.088 128.582 261.394 128.625 261.799C128.627 261.82 128.628 261.842 128.628 261.863C128.628 262.272 128.131 262.603 127.519 262.603C126.906 262.603 126.41 262.272 126.41 261.863C126.391 261.502 126.769 261.186 127.301 261.116ZM119.201 261.864C119.209 261.864 119.217 261.864 119.225 261.864C119.825 261.791 120.401 262.056 120.51 262.456C120.524 262.507 120.53 262.559 120.527 262.611C120.527 263.02 120.03 263.351 119.418 263.351C118.805 263.351 118.309 263.02 118.309 262.611C118.291 262.25 118.669 261.933 119.201 261.864ZM122.383 262.394C122.983 262.322 123.558 262.587 123.667 262.988C123.679 263.031 123.685 263.074 123.685 263.118C123.685 263.527 123.188 263.858 122.576 263.858C121.963 263.858 121.467 263.527 121.467 263.118C121.468 262.76 121.855 262.455 122.383 262.394ZM129.06 262.659C129.66 262.586 130.235 262.852 130.345 263.252C130.357 263.295 130.363 263.339 130.363 263.383C130.363 263.792 129.866 264.123 129.254 264.123C128.641 264.123 128.145 263.792 128.145 263.383C128.146 263.026 128.532 262.721 129.06 262.659ZM125.541 262.707C126.141 262.634 126.716 262.9 126.826 263.3C126.838 263.343 126.844 263.387 126.844 263.431C126.844 263.84 126.347 264.171 125.735 264.171C125.122 264.171 124.626 263.84 124.626 263.431C124.627 263.073 125.013 262.768 125.541 262.707ZM132.049 263.454C132.147 263.309 136.775 264.486 142.319 266.081L152.397 268.975L150.443 272.446C149.369 274.348 148.013 276.901 147.43 278.111C146.246 280.57 145.827 280.612 139.764 279.22C133.058 277.68 122.459 276.218 111.679 275.339L101.313 274.495L105.218 273.025C107.369 272.21 110.462 270.812 112.089 269.915C114.641 268.506 115.67 268.325 119.586 268.613C125.4 269.042 129.318 267.969 130.772 265.551C131.38 264.542 131.952 263.599 132.049 263.454ZM120.672 264.178C120.68 264.178 120.688 264.178 120.696 264.178C121.296 264.105 121.872 264.37 121.981 264.77C121.995 264.821 122.001 264.873 121.998 264.925C121.998 265.334 121.501 265.665 120.889 265.665C120.276 265.665 119.78 265.334 119.78 264.925C119.762 264.564 120.14 264.247 120.672 264.178ZM127.929 264.178C127.937 264.178 127.945 264.178 127.953 264.178C128.553 264.105 129.128 264.371 129.237 264.771C129.251 264.822 129.257 264.873 129.254 264.925C129.254 265.334 128.757 265.665 128.145 265.665C127.532 265.665 127.036 265.334 127.036 264.925C127.018 264.564 127.396 264.247 127.928 264.178H127.929ZM117.513 264.275C117.561 264.273 117.61 264.273 117.658 264.275C118.267 264.247 118.794 264.553 118.837 264.959C118.839 264.98 118.84 265.001 118.84 265.022C118.84 265.431 118.343 265.762 117.731 265.762C117.118 265.762 116.622 265.431 116.622 265.022C116.604 264.661 116.982 264.344 117.514 264.275H117.513ZM124.384 264.394C124.984 264.322 125.559 264.587 125.668 264.988C125.68 265.031 125.686 265.074 125.686 265.118C125.686 265.527 125.189 265.858 124.577 265.858C123.964 265.858 123.468 265.527 123.468 265.118C123.469 264.76 123.856 264.455 124.384 264.394ZM115.946 265.913C115.954 265.913 115.963 265.913 115.971 265.913C116.574 265.849 117.14 266.123 117.235 266.525C117.246 266.57 117.25 266.615 117.248 266.66C117.177 267.064 116.628 267.353 116.022 267.305C115.514 267.265 115.114 266.998 115.054 266.66C115.036 266.299 115.414 265.983 115.946 265.913ZM119.105 265.962C119.145 265.961 119.185 265.961 119.225 265.962C119.834 265.934 120.361 266.24 120.404 266.646C120.406 266.667 120.407 266.689 120.407 266.71C120.333 267.114 119.783 267.401 119.177 267.352C118.673 267.311 118.275 267.046 118.214 266.71C118.195 266.348 118.573 266.031 119.105 265.962ZM122.479 266.082C123.079 266.009 123.654 266.275 123.764 266.675C123.776 266.718 123.782 266.762 123.782 266.806C123.782 267.215 123.285 267.546 122.673 267.546C122.06 267.546 121.564 267.215 121.564 266.806C121.565 266.448 121.951 266.143 122.479 266.082ZM126.047 266.179C126.055 266.179 126.063 266.179 126.071 266.179C126.674 266.115 127.24 266.389 127.335 266.791C127.346 266.836 127.35 266.881 127.348 266.926C127.274 267.33 126.724 267.617 126.118 267.568C125.614 267.527 125.216 267.262 125.155 266.926C125.137 266.565 125.515 266.248 126.047 266.179ZM99.9402 276.568C104.35 276.428 119.751 277.544 127.061 278.641C133.493 279.607 144.761 281.698 145.141 281.992C145.236 282.065 144.271 285.149 142.971 288.839C141.672 292.529 140.487 295.974 140.344 296.481C140.147 297.172 139.356 297.28 137.162 296.939C126.45 295.27 95.5882 295.421 83.7172 297.204C76.9682 298.218 75.9772 298.144 76.5572 296.722C76.8232 296.07 77.3862 294.029 77.8102 292.165L78.5822 288.767L85.7422 285.054C89.6772 283.004 94.0632 280.393 95.4822 279.244C96.9002 278.096 98.3792 276.956 98.7842 276.713C98.9092 276.638 99.3092 276.589 99.9402 276.568ZM65.2732 294.866C65.5952 294.866 66.3982 295.236 67.3232 295.83C68.5302 296.605 70.0712 297.245 70.7462 297.252C74.1042 297.293 75.9502 302.025 78.7982 317.912C79.1982 320.147 79.6692 322.625 79.8352 323.432C80.0972 324.719 79.7292 325.008 76.8462 325.65C73.2012 326.462 72.3142 326.521 72.3142 326.036C72.3142 324.672 68.6902 308.395 67.1072 302.652C66.0282 298.741 65.1312 295.298 65.1312 294.986C65.1312 294.948 65.1492 294.908 65.1792 294.89C65.2082 294.872 65.2422 294.864 65.2762 294.866H65.2732ZM102.061 297.253H105.75L104.52 298.651C102.336 301.159 101.294 301.396 99.7712 299.711C99.0042 298.863 98.3742 297.966 98.3742 297.71C98.3732 297.455 100.034 297.253 102.061 297.253ZM109.872 297.253H116.863L115.319 298.941C113.429 301.032 113.305 301.032 111.415 298.941L109.872 297.253ZM120.431 297.253H122.045C122.924 297.253 124.537 297.434 125.637 297.663L127.638 298.072L125.782 299.688C124.766 300.577 123.837 301.299 123.709 301.279C123.582 301.257 122.784 300.327 121.949 299.229L120.431 297.253ZM131.302 297.734L132.918 298.144C133.814 298.378 135.727 298.595 137.162 298.602H139.765L137.813 300.265C136.737 301.182 135.701 301.939 135.499 301.953C135.297 301.966 134.261 301.026 133.209 299.856L131.302 297.734ZM92.4662 297.952C92.6542 297.957 92.7712 297.966 92.8042 298.001C92.9362 298.139 92.3912 299.064 91.5742 300.05L90.0792 301.834L88.1992 300.292L86.3192 298.725L89.4532 298.242C90.7412 298.04 91.9042 297.936 92.4662 297.952ZM95.4312 298.145C95.4312 298.08 96.3672 298.898 97.5042 299.953L99.5772 301.882L95.7432 302.098L91.9092 302.316L93.6692 300.291C94.6402 299.174 95.4312 298.209 95.4312 298.145ZM118.719 298.145C118.993 298.163 119.259 298.32 119.586 298.603C120.154 299.093 120.898 300.066 121.249 300.749C121.8 301.818 121.633 301.964 120.069 301.906C119.07 301.869 117.576 301.644 116.742 301.401L115.224 300.967L116.887 299.351C117.766 298.493 118.261 298.114 118.719 298.145ZM107.919 298.169C108.64 298.07 109.201 298.607 109.968 299.808C110.907 301.278 110.874 301.3 107.413 301.279L103.917 301.255L105.773 299.567C106.691 298.727 107.358 298.246 107.919 298.169ZM129.735 298.409L131.327 299.977C133.07 301.679 133.378 302.718 132.098 302.532C131.65 302.467 130.032 302.313 128.506 302.17L125.734 301.904L127.735 300.169L129.735 298.409ZM84.5592 299.278C84.8612 299.278 85.7922 300.014 86.6092 300.917L88.0792 302.556L84.9212 302.99C83.1822 303.224 81.1782 303.54 80.4612 303.689C79.4922 303.892 79.7852 303.354 81.5952 301.616C82.9342 300.329 84.2582 299.278 84.5592 299.278ZM79.7372 299.375C79.9532 299.371 80.1472 299.396 80.3162 299.423C81.3842 299.596 81.2832 299.87 79.5452 301.594L77.5442 303.57L76.9652 301.931C76.4822 300.587 76.6232 300.203 77.7372 299.76C78.3782 299.523 79.0542 299.393 79.7372 299.374V299.375ZM138.824 301.64C139.134 301.621 139.199 301.871 139.017 302.364C138.622 303.435 137.474 303.699 137.474 302.725C137.474 302.392 137.919 301.969 138.438 301.761C138.596 301.698 138.721 301.647 138.824 301.64ZM111.415 303.689C121.273 303.689 131.318 303.934 133.738 304.244C137.809 304.763 138.126 304.92 138.126 306.437C138.126 308.245 137.575 308.331 132.268 307.376C130.656 307.087 124.186 306.472 117.876 306.002C106.926 305.188 93.3512 305.628 81.2572 307.183C78.7622 307.505 78.1722 307.382 78.1722 306.557C78.1702 304.811 91.2422 303.689 111.415 303.689ZM98.1562 307.402H105.122L103.579 309.09C101.689 311.181 101.564 311.181 99.6742 309.09L98.1562 307.402ZM107.1 307.402L108.931 309.21C109.939 310.213 110.764 311.143 110.764 311.26C110.764 311.377 109.09 311.476 107.051 311.476H103.338L105.218 309.427L107.1 307.402ZM109.872 307.402H116.863L115.319 309.09C113.429 311.181 113.305 311.181 111.415 309.09L109.872 307.402ZM93.3822 307.499C93.6882 307.518 93.4132 308.034 92.4912 309.331C91.6522 310.51 90.7662 311.477 90.5372 311.477C90.3092 311.477 89.4512 310.696 88.6082 309.765L87.0662 308.077H89.4042C90.6922 308.077 92.2552 307.867 92.8762 307.619C93.1032 307.528 93.2802 307.492 93.3822 307.498V307.499ZM96.0102 308.077L97.6732 309.595C98.5922 310.434 99.4392 311.178 99.5532 311.234C99.6692 311.291 98.1582 311.442 96.1782 311.572L92.5622 311.813L94.2972 309.933L96.0102 308.077ZM118.333 308.077L120.214 310.127C122.263 312.349 122.057 312.447 117.393 311.549L115.199 311.139L116.766 309.596L118.333 308.077ZM120.961 308.077H123.998C127.291 308.077 127.715 308.593 125.855 310.344C124.325 311.782 124.317 311.772 122.503 309.765L120.961 308.077ZM81.5932 308.775C83.0752 308.762 83.0302 308.902 81.1112 310.776C79.6392 312.212 79.4612 312.245 79.0612 311.163C78.5832 309.866 79.7312 308.793 81.5922 308.776V308.775H81.5932ZM131.472 308.97C131.972 308.965 133 309.078 134.148 309.283L136.945 309.765L135.328 311.331L133.737 312.899L132.339 311.066C131.574 310.055 131.041 309.139 131.158 309.017C131.188 308.987 131.305 308.969 131.471 308.968L131.472 308.97ZM85.2342 309.571C85.6292 309.504 85.9792 309.826 86.6562 310.463C87.9492 311.679 87.9652 311.79 86.8492 312.247C86.1982 312.514 84.7822 312.751 83.7152 312.777L81.7862 312.826L83.5462 310.993C84.4132 310.094 84.8392 309.638 85.2342 309.571ZM129.06 309.933C129.514 309.908 129.873 310.295 130.507 311.186L131.688 312.826H128.988C127.229 312.826 126.388 312.545 126.553 312.03C126.692 311.596 127.374 310.863 128.071 310.391C128.484 310.112 128.789 309.948 129.06 309.933ZM137.305 311.668C137.449 311.7 137.473 311.937 137.473 312.368C137.473 313.631 136.42 314.462 135.907 313.597C135.706 313.261 135.975 312.611 136.509 312.15C136.905 311.811 137.162 311.636 137.305 311.668ZM103.966 313.212C115.113 313.2 127.511 313.94 134.702 315.285L136.824 315.695V321.359C136.824 325.504 136.622 327.02 136.028 326.953C135.58 326.901 132.711 326.312 129.663 325.627C120.469 323.559 110.074 322.759 98.3732 323.24C92.4572 323.483 86.2672 323.927 84.6082 324.228L81.5702 324.782L80.8232 320.057C80.4102 317.464 80.1782 315.258 80.2932 315.139C80.4082 315.02 83.2652 314.536 86.6572 314.079C91.0242 313.49 97.2772 313.219 103.966 313.212Z" fill="black"/>
</g>
<mask id="mask9_7748_9" style="mask-type:luminance" maskUnits="userSpaceOnUse" x="0" y="1" width="592" height="540">
<path d="M460.96 541L454.079 536.336L444.677 533.307L432.731 531.912L417.204 532.494L398.11 535.036L377.63 531.944L355.755 523.222L337.588 520.133L315.899 523.923L314.942 524.018L311.175 521.064L305.25 514.69L295.351 513.568L292.667 512.08L290.457 509.71L289.011 506.689L288.44 503.326L290.071 492.863L289.181 491.688L286.534 490.434L281.114 489.18L268.086 484.434L251.706 479.856L225.101 474.828L214.772 473.504L212.377 471.974L209.381 468.122L204.279 456.147L199.474 448.242L188.033 436.058L186.209 432.273L186.78 422.615L187.625 414.819L188.856 408.203L188.3 402.016L188.137 394.336L188.5 389.187L186.958 386.96L182.806 385.394L170.986 384.686L156.697 385.001L156.23 377.198L154.873 365.141L152.196 358.206L148.911 354.603L142.349 350.844L129.054 345.697L110.946 337.879L95.4854 326.314L77.7484 311.943L72.2094 309.456L65.6694 295.979L55.7034 272.943L56.3484 265.271L54.8434 261.522L45.1664 250.228L43.0234 244.366L41.3174 238.445L25.9084 221.933L20.6664 214.733L16.6774 205.488L12.7034 198.103L9.35136 195.125L4.96136 190.101L1.91337 184.374L0.526367 180.106L1.66837 174.383L3.16637 170.458L17.8184 174.546L25.8194 174.894L32.0854 172.881L39.8264 175.583L49.0654 183.018L59.1354 184.436L70.0434 179.827L84.7624 181.221L103.3 188.621L118.664 190.125L136.957 183.53L153.278 165.289L168.627 148.153L183.724 128.398L192.822 112.463L206.162 99.51L223.743 89.539L241.665 81.113L269.064 70.809L269.057 70.824L274.537 62.324L276.361 53.046V40.168L277.792 31.831L280.639 28.036L285.192 25.077L291.08 21.238L309.099 11.456L324.241 5.209L342.638 1.122L362.785 1.076L382.205 1.03L393.245 1L393.401 13.364L394.254 27.286L396.412 28.627L411.02 28.934L434.452 29.915L457.038 30.85L471.46 40.959L476.295 43.107L491.311 45.816L510.464 62.694L533.503 64.261L549.349 69.533L563.312 75.337L571.357 82.282L576.555 83.859L583.592 84.375L587.018 85.014L586.247 90.032L581.568 98.517L582.183 110.683L588.634 127.566L589.502 142.267L587.522 168.231L587.589 193.413L588.279 202.417L589.332 208.392L590.689 211.66L590.437 215.395L586.596 225.984L583.496 237.149L583.392 241.622L582.198 244.766L579.914 247.568L569.852 252.73L568.124 255.923L568.161 261.704L569.436 266.567L573.21 268.36L577.763 271.113L579.557 274.755L579.572 278.593L578.126 285.703L574.077 297.489L578.111 311.054L582.642 319.857L588.886 330.068L591.474 336.36L591.333 340.883L590.414 345.275L581.063 363.949L574.323 375.565L566.1 388.018L555.222 395.836L552.419 399.601L551.299 403.895L551.692 413.253L551.188 423.045L541.882 438.123L547.666 451.124L546.346 452.319L543.209 454.187L529.817 468.83L516.27 483.658L506.371 494.509L495.115 506.865L482.495 520.723L471.713 532.574L460.96 541Z" fill="white"/>
</mask>
<g mask="url(#mask9_7748_9)">
<path d="M126.408 280.98C122.597 280.98 119.876 283.793 119.876 287.754C119.876 293.927 126.815 296.916 131.014 292.552C135.212 288.188 132.347 280.98 126.408 280.98ZM126.384 282.572C129.2 282.461 131.616 284.652 131.616 287.827C131.616 291.544 127.315 294.136 123.997 292.408C120.451 290.56 120.714 284.62 124.407 283.03C125.033 282.756 125.703 282.601 126.384 282.572Z" fill="black"/>
</g>
<mask id="mask10_7748_9" style="mask-type:luminance" maskUnits="userSpaceOnUse" x="0" y="1" width="592" height="540">
<path d="M460.96 541L454.079 536.336L444.677 533.307L432.731 531.912L417.204 532.494L398.11 535.036L377.63 531.944L355.755 523.222L337.588 520.133L315.899 523.923L314.942 524.018L311.175 521.064L305.25 514.69L295.351 513.568L292.667 512.08L290.457 509.71L289.011 506.689L288.44 503.326L290.071 492.863L289.181 491.688L286.534 490.434L281.114 489.18L268.086 484.434L251.706 479.856L225.101 474.828L214.772 473.504L212.377 471.974L209.381 468.122L204.279 456.147L199.474 448.242L188.033 436.058L186.209 432.273L186.78 422.615L187.625 414.819L188.856 408.203L188.3 402.016L188.137 394.336L188.5 389.187L186.958 386.96L182.806 385.394L170.986 384.686L156.697 385.001L156.23 377.198L154.873 365.141L152.196 358.206L148.911 354.603L142.349 350.844L129.054 345.697L110.946 337.879L95.4854 326.314L77.7484 311.943L72.2094 309.456L65.6694 295.979L55.7034 272.943L56.3484 265.271L54.8434 261.522L45.1664 250.228L43.0234 244.366L41.3174 238.445L25.9084 221.933L20.6664 214.733L16.6774 205.488L12.7034 198.103L9.35136 195.125L4.96136 190.101L1.91337 184.374L0.526367 180.106L1.66837 174.383L3.16637 170.458L17.8184 174.546L25.8194 174.894L32.0854 172.881L39.8264 175.583L49.0654 183.018L59.1354 184.436L70.0434 179.827L84.7624 181.221L103.3 188.621L118.664 190.125L136.957 183.53L153.278 165.289L168.627 148.153L183.724 128.398L192.822 112.463L206.162 99.51L223.743 89.539L241.665 81.113L269.064 70.809L269.057 70.824L274.537 62.324L276.361 53.046V40.168L277.792 31.831L280.639 28.036L285.192 25.077L291.08 21.238L309.099 11.456L324.241 5.209L342.638 1.122L362.785 1.076L382.205 1.03L393.245 1L393.401 13.364L394.254 27.286L396.412 28.627L411.02 28.934L434.452 29.915L457.038 30.85L471.46 40.959L476.295 43.107L491.311 45.816L510.464 62.694L533.503 64.261L549.349 69.533L563.312 75.337L571.357 82.282L576.555 83.859L583.592 84.375L587.018 85.014L586.247 90.032L581.568 98.517L582.183 110.683L588.634 127.566L589.502 142.267L587.522 168.231L587.589 193.413L588.279 202.417L589.332 208.392L590.689 211.66L590.437 215.395L586.596 225.984L583.496 237.149L583.392 241.622L582.198 244.766L579.914 247.568L569.852 252.73L568.124 255.923L568.161 261.704L569.436 266.567L573.21 268.36L577.763 271.113L579.557 274.755L579.572 278.593L578.126 285.703L574.077 297.489L578.111 311.054L582.642 319.857L588.886 330.068L591.474 336.36L591.333 340.883L590.414 345.275L581.063 363.949L574.323 375.565L566.1 388.018L555.222 395.836L552.419 399.601L551.299 403.895L551.692 413.253L551.188 423.045L541.882 438.123L547.666 451.124L546.346 452.319L543.209 454.187L529.817 468.83L516.27 483.658L506.371 494.509L495.115 506.865L482.495 520.723L471.713 532.574L460.96 541Z" fill="white"/>
</mask>
<g mask="url(#mask10_7748_9)">
<path d="M104.74 280.332C100.929 280.332 98.208 283.145 98.208 287.106C98.208 293.279 105.147 296.268 109.346 291.904C113.544 287.54 110.679 280.332 104.74 280.332ZM104.716 281.924C107.532 281.813 109.948 284.004 109.948 287.179C109.948 290.896 105.647 293.488 102.329 291.76C98.783 289.912 99.046 283.972 102.739 282.382C103.365 282.108 104.035 281.953 104.716 281.924Z" fill="black"/>
</g>
<mask id="mask11_7748_9" style="mask-type:luminance" maskUnits="userSpaceOnUse" x="0" y="1" width="592" height="540">
<path d="M460.96 541L454.079 536.336L444.677 533.307L432.731 531.912L417.204 532.494L398.11 535.036L377.63 531.944L355.755 523.222L337.588 520.133L315.899 523.923L314.942 524.018L311.175 521.064L305.25 514.69L295.351 513.568L292.667 512.08L290.457 509.71L289.011 506.689L288.44 503.326L290.071 492.863L289.181 491.688L286.534 490.434L281.114 489.18L268.086 484.434L251.706 479.856L225.101 474.828L214.772 473.504L212.377 471.974L209.381 468.122L204.279 456.147L199.474 448.242L188.033 436.058L186.209 432.273L186.78 422.615L187.625 414.819L188.856 408.203L188.3 402.016L188.137 394.336L188.5 389.187L186.958 386.96L182.806 385.394L170.986 384.686L156.697 385.001L156.23 377.198L154.873 365.141L152.196 358.206L148.911 354.603L142.349 350.844L129.054 345.697L110.946 337.879L95.4854 326.314L77.7484 311.943L72.2094 309.456L65.6694 295.979L55.7034 272.943L56.3484 265.271L54.8434 261.522L45.1664 250.228L43.0234 244.366L41.3174 238.445L25.9084 221.933L20.6664 214.733L16.6774 205.488L12.7034 198.103L9.35136 195.125L4.96136 190.101L1.91337 184.374L0.526367 180.106L1.66837 174.383L3.16637 170.458L17.8184 174.546L25.8194 174.894L32.0854 172.881L39.8264 175.583L49.0654 183.018L59.1354 184.436L70.0434 179.827L84.7624 181.221L103.3 188.621L118.664 190.125L136.957 183.53L153.278 165.289L168.627 148.153L183.724 128.398L192.822 112.463L206.162 99.51L223.743 89.539L241.665 81.113L269.064 70.809L269.057 70.824L274.537 62.324L276.361 53.046V40.168L277.792 31.831L280.639 28.036L285.192 25.077L291.08 21.238L309.099 11.456L324.241 5.209L342.638 1.122L362.785 1.076L382.205 1.03L393.245 1L393.401 13.364L394.254 27.286L396.412 28.627L411.02 28.934L434.452 29.915L457.038 30.85L471.46 40.959L476.295 43.107L491.311 45.816L510.464 62.694L533.503 64.261L549.349 69.533L563.312 75.337L571.357 82.282L576.555 83.859L583.592 84.375L587.018 85.014L586.247 90.032L581.568 98.517L582.183 110.683L588.634 127.566L589.502 142.267L587.522 168.231L587.589 193.413L588.279 202.417L589.332 208.392L590.689 211.66L590.437 215.395L586.596 225.984L583.496 237.149L583.392 241.622L582.198 244.766L579.914 247.568L569.852 252.73L568.124 255.923L568.161 261.704L569.436 266.567L573.21 268.36L577.763 271.113L579.557 274.755L579.572 278.593L578.126 285.703L574.077 297.489L578.111 311.054L582.642 319.857L588.886 330.068L591.474 336.36L591.333 340.883L590.414 345.275L581.063 363.949L574.323 375.565L566.1 388.018L555.222 395.836L552.419 399.601L551.299 403.895L551.692 413.253L551.188 423.045L541.882 438.123L547.666 451.124L546.346 452.319L543.209 454.187L529.817 468.83L516.27 483.658L506.371 494.509L495.115 506.865L482.495 520.723L471.713 532.574L460.96 541Z" fill="white"/>
</mask>
<g mask="url(#mask11_7748_9)">
<path d="M79.1594 187.781C78.0024 187.87 77.1074 188.858 77.1094 190.047C77.1094 191.301 78.1024 192.318 79.3274 192.318C80.5524 192.318 81.5454 191.301 81.5454 190.047C81.5484 188.795 80.5584 187.777 79.3354 187.775C79.2774 187.775 79.2184 187.777 79.1594 187.781ZM79.3044 188.576C80.1104 188.6 80.7514 189.251 80.7504 190.047C80.7514 190.861 80.0834 191.522 79.2574 191.523C78.4324 191.524 77.7624 190.865 77.7614 190.051C77.7614 190.051 77.7614 190.049 77.7614 190.047C77.7604 189.235 78.4264 188.576 79.2494 188.575C79.2674 188.575 79.2864 188.576 79.3044 188.576Z" fill="black"/>
</g>
<path d="M460.96 541L454.079 536.336L444.677 533.307L432.731 531.912L417.204 532.494L398.11 535.036L377.63 531.944L355.755 523.222L337.588 520.133L315.899 523.923L314.942 524.018L311.175 521.064L305.25 514.69L295.351 513.568L292.667 512.08L290.457 509.71L289.011 506.689L288.44 503.326L290.071 492.863L289.181 491.688L286.534 490.434L281.114 489.18L268.086 484.434L251.706 479.856L225.101 474.828L214.772 473.504L212.377 471.974L209.381 468.122L204.279 456.147L199.474 448.242L188.033 436.058L186.209 432.273L186.78 422.615L187.625 414.819L188.856 408.203L188.3 402.016L188.137 394.336L188.5 389.187L186.958 386.96L182.806 385.394L170.986 384.686L156.697 385.001L156.23 377.198L154.873 365.141L152.196 358.206L148.911 354.603L142.349 350.844L129.054 345.697L110.946 337.879L95.4854 326.314L77.7484 311.943L72.2094 309.456L65.6694 295.979L55.7034 272.943L56.3484 265.271L54.8434 261.522L45.1664 250.228L43.0234 244.366L41.3174 238.445L25.9084 221.933L20.6664 214.733L16.6774 205.488L12.7034 198.103L9.35136 195.125L4.96136 190.101L1.91337 184.374L0.526367 180.106L1.66837 174.383L3.16637 170.458L17.8184 174.546L25.8194 174.894L32.0854 172.881L39.8264 175.583L49.0654 183.018L59.1354 184.436L70.0434 179.827L84.7624 181.221L103.3 188.621L118.664 190.125L136.957 183.53L153.278 165.289L168.627 148.153L183.724 128.398L192.822 112.463L206.162 99.51L223.743 89.539L241.665 81.113L269.064 70.809L269.057 70.824L274.537 62.324L276.361 53.046V40.168L277.792 31.831L280.639 28.036L285.192 25.077L291.08 21.238L309.099 11.456L324.241 5.209L342.638 1.122L362.785 1.076L382.205 1.03L393.245 1L393.401 13.364L394.254 27.286L396.412 28.627L411.02 28.934L434.452 29.915L457.038 30.85L471.46 40.959L476.295 43.107L491.311 45.816L510.464 62.694L533.503 64.261L549.349 69.533L563.312 75.337L571.357 82.282L576.555 83.859L583.592 84.375L587.018 85.014L586.247 90.032L581.568 98.517L582.183 110.683L588.634 127.566L589.502 142.267L587.522 168.231L587.589 193.413L588.279 202.417L589.332 208.392L590.689 211.66L590.437 215.395L586.596 225.984L583.496 237.149L583.392 241.622L582.198 244.766L579.914 247.568L569.852 252.73L568.124 255.923L568.161 261.704L569.436 266.567L573.21 268.36L577.763 271.113L579.557 274.755L579.572 278.593L578.126 285.703L574.077 297.489L578.111 311.054L582.642 319.857L588.886 330.068L591.474 336.36L591.333 340.883L590.414 345.275L581.063 363.949L574.323 375.565L566.1 388.018L555.222 395.836L552.419 399.601L551.299 403.895L551.692 413.253L551.188 423.045L541.882 438.123L547.666 451.124L546.346 452.319L543.209 454.187L529.817 468.83L516.27 483.658L506.371 494.509L495.115 506.865L482.495 520.723L471.713 532.574L460.96 541Z" stroke="black" stroke-width="0.5" stroke-miterlimit="10"/>
</svg>
